<svg xmlns="http://www.w3.org/2000/svg" width="16"
                                    height="17" viewBox="0 0 16 17">
                                    <g fill="none" fill-rule="evenodd">
                                        <g fill="#f6692c">
                                            <g>
                                                <g>
                                                    <g>
                                                        <g>
                                                            <path
                                                                d="M7.448 0C3.334 0 0 3.47 0 7.75c0 4.281 3.334 7.752 7.448 7.752 4.114 0 7.448-3.47 7.448-7.752 0-4.28-3.334-7.75-7.448-7.75m0 1.098c3.512 0 6.37 2.985 6.37 6.652 0 3.669-2.858 6.654-6.37 6.654-3.513 0-6.37-2.985-6.37-6.654 0-3.667 2.857-6.652 6.37-6.652"
                                                                transform="translate(-403.000000, -1023.000000) translate(163.000000, 484.000000) translate(0.000000, 490.000000) translate(240.000000, 49.000000) translate(0.489200, 1.172480)" />
                                                        </g>
                                                        <path
                                                            d="M5.119 10.72c-.442 0-.8-.358-.8-.8 0-.442.358-.8.8-.8.442 0 .8.358.8.8 0 .442-.358.8-.8.8M5.73 11.84h4.413c0 1.267-.987 2.295-2.206 2.295-1.218 0-2.206-1.028-2.206-2.295zM10.907 10.72c-.442 0-.8-.358-.8-.8 0-.442.358-.8.8-.8.442 0 .8.358.8.8 0 .442-.358.8-.8.8M15.874 8.24c-.4-3.12-2.386-5.89-5.35-6.977C6.336-.272 1.783 2.132.354 6.632.186 7.164.07 7.702 0 8.24h6.26V5.418L8.721 8.24h7.153z"
                                                            transform="translate(-403.000000, -1023.000000) translate(163.000000, 484.000000) translate(0.000000, 490.000000) translate(240.000000, 49.000000)" />
                                                    </g>
                                                </g>
                                            </g>
                                        </g>
                                    </g>
                                </svg>
                                