<svg fill="none" height="20" viewBox="0 0 20 20" width="20" xmlns="http://www.w3.org/2000/svg" xmlns:xlink="http://www.w3.org/1999/xlink"><clipPath id="a"><path d="m2 2h16v16h-16z"/></clipPath><g clip-path="url(#a)" fill="currentColor"><path d="m10 3c3.9 0 7 3.1 7 7s-3.1 7-7 7-7-3.1-7-7 3.1-7 7-7zm0-1c-4.4 0-8 3.6-8 8s3.6 8 8 8 8-3.6 8-8-3.6-8-8-8z"/><path d="m10 13h2c0 1.1-.9 2-2 2s-2-.9-2-2z"/><path d="m17.4001 9h-6.6l-2.4-2.7v2.7h-5.8c0-3.9 3.3-7 7.4-7s7.4 3.2 7.4 7z"/><path d="m6.69995 12c.55229 0 1-.4477 1-1s-.44771-1-1-1c-.55228 0-1 .4477-1 1s.44772 1 1 1z"/><path d="m13.3 12c.5523 0 1-.4477 1-1s-.4477-1-1-1c-.5522 0-1 .4477-1 1s.4478 1 1 1z"/></g></svg>