<svg width="20" height="20" viewBox="0 0 20 20" fill="none" xmlns="http://www.w3.org/2000/svg">
<mask id="mask0_8182_13903" style="mask-type:alpha" maskUnits="userSpaceOnUse" x="0" y="0" width="20" height="20">
<rect width="20" height="20" fill="#D9D9D9"/>
</mask>
<g mask="url(#mask0_8182_13903)">
<path d="M6.99521 18C5.88729 18 4.94444 17.6095 4.16667 16.8285C3.38889 16.0477 3 15.1033 3 13.9952C3 12.8873 3.39 11.9444 4.17 11.1667C4.95 10.3889 5.89333 10 7 10V11.5C6.30556 11.5 5.71528 11.7431 5.22917 12.2292C4.74306 12.7153 4.5 13.3056 4.5 14C4.5 14.6944 4.74306 15.2847 5.22917 15.7708C5.71528 16.2569 6.30556 16.5 7 16.5C7.69444 16.5 8.28472 16.2569 8.77083 15.7708C9.25694 15.2847 9.5 14.6944 9.5 14H11C11 15.1111 10.6095 16.0556 9.82854 16.8333C9.04771 17.6111 8.10326 18 6.99521 18ZM14 17V13H8.9375L8.22917 12L9.83333 7.5H7.66667L7.125 8.75L5.75 8.16667L6.66667 6H12C12.5417 6 12.9618 6.22917 13.2604 6.6875C13.559 7.14583 13.5903 7.625 13.3542 8.125L12 11.5H15.5V17H14ZM13.7448 5.75C13.2622 5.75 12.8507 5.57812 12.5104 5.23438C12.1701 4.89062 12 4.47743 12 3.99479C12 3.51215 12.1719 3.10069 12.5156 2.76042C12.8594 2.42014 13.2726 2.25 13.7552 2.25C14.2378 2.25 14.6493 2.42188 14.9896 2.76562C15.3299 3.10938 15.5 3.52257 15.5 4.00521C15.5 4.48785 15.3281 4.89931 14.9844 5.23958C14.6406 5.57986 14.2274 5.75 13.7448 5.75Z" fill="currentColor"/>
</g>
</svg>
