<svg xmlns="http://www.w3.org/2000/svg"
    xmlns:xlink="http://www.w3.org/1999/xlink">
    <symbol fill="none" viewBox="0 0 24 24" id="accessible">
        <path fill="currentcolor" d="M8.4 21.6A4.61 4.61 0 0 1 5 20.2a4.64 4.64 0 0 1-1.4-3.4c0-1.34.47-2.47 1.4-3.4A4.63 4.63 0 0 1 8.4 12v1.8c-.83 0-1.54.3-2.12.88a2.9 2.9 0 0 0-.88 2.12c0 .83.3 1.54.88 2.13.58.58 1.29.87 2.12.87.83 0 1.54-.3 2.13-.88.58-.58.87-1.29.87-2.12h1.8c0 1.33-.47 2.47-1.4 3.4a4.64 4.64 0 0 1-3.4 1.4Zm8.4-1.2v-4.8h-6.07l-.85-1.2L11.8 9H9.2l-.65 1.5-1.65-.7L8 7.2h6.4c.65 0 1.15.27 1.51.82.36.55.4 1.13.12 1.73L14.4 13.8h4.2v6.6h-1.8Zm-.3-13.5a2 2 0 0 1-1.5-.62c-.4-.41-.61-.9-.61-1.49a2 2 0 0 1 .62-1.48c.41-.4.9-.61 1.49-.61a2 2 0 0 1 1.48.62c.4.41.61.9.61 1.49a2 2 0 0 1-.62 1.48c-.41.4-.9.61-1.49.61Z"/>
    </symbol>
    <symbol fill="none" viewBox="0 0 24 24" id="arrow-right">
        <path fill="currentcolor" d="m7.95 22.6-2.2-2.2 8.43-8.42-8.43-8.43 2.2-2.2 10.63 10.63L7.94 22.6Z"/>
    </symbol>
    <symbol fill="none" viewBox="0 0 24 24" id="childfriendly">
        <path fill="currentcolor" d="M12 5c3.9 0 7 3.1 7 7s-3.1 7-7 7-7-3.1-7-7 3.1-7 7-7Zm0-1c-4.4 0-8 3.6-8 8s3.6 8 8 8 8-3.6 8-8-3.6-8-8-8Z"/>
        <path fill="currentcolor" d="M12 15h2a2 2 0 0 1-2 2 2 2 0 0 1-2-2h2Zm7.4-4h-6.6l-2.4-2.7V11H4.6c0-3.9 3.3-7 7.4-7 4.1 0 7.4 3.2 7.4 7ZM8.7 14a1 1 0 1 0 0-2 1 1 0 0 0 0 2Zm6.6 0a1 1 0 1 0 0-2 1 1 0 0 0 0 2Z"/>
    </symbol>
    <symbol fill="none" viewBox="0 0 20 20" id="close">
        <path fill="currentcolor" d="m5.98 15.5-1.44-1.48 4-4.02-4-4.06 1.44-1.48 4.04 4.06 4-4.06 1.44 1.48-4 4.06 4 4.02-1.44 1.48-4-4.06-4.04 4.06Z"/>
    </symbol>
    <symbol fill="none" viewBox="0 0 24 24" id="englishlanguage">
        <path fill="currentcolor" d="M13.18 16.8V6.72h2.94l3.25 8.38h.12V6.72h1.72V16.8h-2.96l-3.2-8.37h-.13v8.37h-1.74Zm-9.56 0V6.72h6.1v1.63H5.37v2.52H9.1v1.61H5.37v2.7h4.49v1.62H3.62Z"/>
    </symbol>
    <symbol fill="none" viewBox="0 0 24 24" id="facebook">
        <path fill="currentcolor" d="M16.69 15.48h-2.82v8.37a12 12 0 1 0-3.74 0v-8.37H7.05v-3.5h3.07V9.17c.16-3.71 2.58-5.13 7.24-4.25v2.93h-1.62c-1.2.04-1.83.67-1.88 1.88v2.25h3.35"/>
    </symbol>
    <symbol fill="none" viewBox="0 0 24 24" id="heart">
        <path fill="currentcolor" d="m12 21-1.45-1.3a113.1 113.1 0 0 1-4.18-3.92 27.66 27.66 0 0 1-2.62-2.97 9.41 9.41 0 0 1-1.36-2.41A6.73 6.73 0 0 1 2 8.15c0-1.57.52-2.88 1.58-3.93A5.33 5.33 0 0 1 7.5 2.65a5.77 5.77 0 0 1 4.5 2.1 5.93 5.93 0 0 1 4.5-2.1c1.57 0 2.88.52 3.93 1.57A5.33 5.33 0 0 1 22 8.15c0 .77-.13 1.52-.39 2.25a9.41 9.41 0 0 1-1.36 2.41c-.65.88-1.52 1.87-2.63 2.96-1.1 1.1-2.49 2.41-4.17 3.93L12 21Zm0-2.7c1.6-1.43 2.92-2.66 3.95-3.69a31.17 31.17 0 0 0 2.45-2.67 8.36 8.36 0 0 0 1.25-2.03c.23-.59.35-1.18.35-1.76a3.4 3.4 0 0 0-3.5-3.5A3.86 3.86 0 0 0 12.95 7h-1.9A3.86 3.86 0 0 0 7.5 4.65 3.4 3.4 0 0 0 4 8.15c0 .58.12 1.17.35 1.76.23.6.65 1.27 1.25 2.03.6.76 1.42 1.65 2.45 2.67A109.3 109.3 0 0 0 12 18.3Z"/>
    </symbol>
    <symbol fill="none" viewBox="0 0 24 24" id="heart-filled">
        <path fill="currentcolor" d="m12 21-1.45-1.3a113.1 113.1 0 0 1-4.18-3.92 27.66 27.66 0 0 1-2.62-2.97 9.41 9.41 0 0 1-1.36-2.41A6.73 6.73 0 0 1 2 8.15c0-1.57.52-2.88 1.58-3.93A5.33 5.33 0 0 1 7.5 2.65a5.77 5.77 0 0 1 4.5 2.1 5.93 5.93 0 0 1 4.5-2.1c1.57 0 2.88.52 3.93 1.57A5.33 5.33 0 0 1 22 8.15c0 .77-.13 1.52-.39 2.25a9.41 9.41 0 0 1-1.36 2.41c-.65.88-1.52 1.87-2.63 2.96-1.1 1.1-2.49 2.41-4.17 3.93L12 21Z"/>
    </symbol>
    <symbol fill="none" viewBox="0 0 24 24" id="instagram">
        <path fill="currentcolor" d="M12 2.16c3.2 0 3.58.01 4.85.07 3.25.15 4.77 1.7 4.92 4.92.06 1.27.07 1.65.07 4.85 0 3.2-.01 3.59-.07 4.85-.15 3.22-1.66 4.77-4.92 4.92-1.27.06-1.64.07-4.85.07a83 83 0 0 1-4.85-.07c-3.26-.15-4.77-1.7-4.92-4.92A82.98 82.98 0 0 1 2.16 12a84 84 0 0 1 .07-4.85c.15-3.23 1.67-4.77 4.92-4.92A84.4 84.4 0 0 1 12 2.16ZM12 0C8.74 0 8.33.01 7.05.07 2.7.27.27 2.7.07 7.05A84.29 84.29 0 0 0 0 12c0 3.26.01 3.67.07 4.95.2 4.36 2.62 6.78 6.98 6.98 1.28.06 1.7.07 4.95.07 3.26 0 3.67-.01 4.95-.07 4.35-.2 6.78-2.62 6.98-6.98.06-1.28.07-1.7.07-4.95 0-3.26-.01-3.67-.07-4.95C23.73 2.7 21.3.27 16.95.07A84.33 84.33 0 0 0 12 0Zm0 5.84a6.16 6.16 0 1 0 0 12.32 6.16 6.16 0 0 0 0-12.32ZM12 16a4 4 0 1 1 0-8 4 4 0 0 1 0 8Zm6.4-11.84a1.44 1.44 0 1 0 0 2.88 1.44 1.44 0 0 0 0-2.88Z"/>
    </symbol>
    <symbol fill="none" viewBox="0 0 20 20" id="kids">
        <path fill="currentcolor" d="M10 3c3.9 0 7 3.1 7 7s-3.1 7-7 7-7-3.1-7-7 3.1-7 7-7Zm0-1c-4.4 0-8 3.6-8 8s3.6 8 8 8 8-3.6 8-8-3.6-8-8-8Z"/>
        <path fill="currentcolor" d="M10 13h2a2 2 0 0 1-2 2 2 2 0 0 1-2-2h2Zm7.4-4h-6.6L8.4 6.3V9H2.6c0-3.9 3.3-7 7.4-7 4.1 0 7.4 3.2 7.4 7ZM6.7 12a1 1 0 1 0 0-2 1 1 0 0 0 0 2Zm6.6 0a1 1 0 1 0 0-2 1 1 0 0 0 0 2Z"/>
    </symbol>
    <symbol fill="none" viewBox="0 0 622 317" id="logo">
        <path d="M2.45 4.08H14.6v45.76h22.6v11.34H2.45zm38.5 35.57c0-12.97 8.73-22.51 19.74-22.51 5.47 0 9.38 2.12 11.91 5.06h.9v-4h11.91v31.24c0 1.14.82 1.79 1.96 1.79h1.71v9.95H78.31a4.6 4.6 0 0 1-4.73-4.57h-.9c-2.28 3.26-5.71 5.63-11.91 5.63-11.01 0-19.82-9.71-19.82-22.6zm32.71.08c0-7.1-4.73-11.09-10.36-11.09s-10.28 4.32-10.28 11.09 4.65 11.09 10.36 11.09c6.2 0 10.28-5.06 10.28-11.09zm23.57-21.54h11.91v3.92h.82c1.96-2.77 5.47-4.98 10.44-4.98 9.05 0 15.09 6.77 15.09 15.17v28.88h-11.91V36.14c0-4.32-2.94-7.5-7.1-7.5s-7.34 3.26-7.34 7.59v24.96H97.23zm55.88 50.82h19.17c1.96 0 2.69-.98 2.69-2.94v-8.89h-.9c-2.28 2.77-5.55 5.06-11.58 5.06-11.09 0-20.07-9.71-20.07-22.6s8.4-22.51 19.5-22.51c6.77 0 9.95 3.02 12.24 5.47h.9v-4.4h11.83v48.45c0 9.38-5.71 13.3-14.36 13.3h-19.41V69.02zm22.02-29.36c0-6.85-4.57-11.18-10.28-11.18s-10.28 4.49-10.28 11.18 4.57 11.34 10.28 11.34c6.12 0 10.28-5.06 10.28-11.34zm18.68.08c0-13.46 9.95-22.6 21.94-22.6 13.21 0 21.45 9.79 21.45 22.51v3.02h-31.16c.08 5.63 4.24 9.05 9.87 9.05 3.92 0 7.67-1.55 9.3-5.14l10.6 2.45c-3.1 9.63-11.42 13.21-19.74 13.21-13.13 0-22.27-9.54-22.27-22.51zm31.4-4.98c-.57-4.32-4.4-7.75-9.46-7.75-5.55 0-9.05 3.92-9.63 7.75zm40.95-30.67h20.72l13.21 44.87h.82V4.08h12.07v57.1H292.1l-12.89-44.87h-.9v44.87h-12.15zm55.39 35.57c0-12.97 8.73-22.51 19.74-22.51 5.47 0 9.38 2.12 11.91 5.06h.9v-4h11.91v31.24c0 1.14.82 1.79 1.96 1.79h1.71v9.95h-10.77a4.6 4.6 0 0 1-4.73-4.57h-.9c-2.28 3.26-5.71 5.63-11.91 5.63-11.01 0-19.82-9.71-19.82-22.6zm32.71.08c0-7.1-4.73-11.09-10.36-11.09s-10.28 4.32-10.28 11.09 4.65 11.09 10.36 11.09c6.2 0 10.28-5.06 10.28-11.09zm21.53 0c0-12.56 8.81-22.6 22.35-22.6 10.44 0 18.84 5.55 21.62 16.31l-11.01 2.77c-1.3-4.89-5.22-7.75-10.28-7.75-6.53 0-10.6 4.89-10.6 11.26s4.16 11.18 10.6 11.18c5.06 0 8.89-2.77 10.2-7.5l11.09 2.69c-2.69 10.69-11.18 16.15-21.62 16.15-13.54 0-22.35-10.12-22.35-22.51zM427.5 0h11.91v22.11h.82c1.96-2.61 5.38-4.98 10.52-4.98 9.05 0 15.25 6.77 15.25 15.17v28.88h-11.91V36.14c0-4.32-2.86-7.5-7.18-7.5s-7.5 3.26-7.5 7.5v25.04H427.5zm52.13 47.88V28.71h-7.1V18.19h7.91V6.44h11.09v11.75h11.42v10.52h-11.42V47.8c0 1.88.73 2.69 2.69 2.69h8.24v10.69h-9.38c-8.65 0-13.46-3.92-13.46-13.3zM0 189.5h62.32v10.6H0zm71.7 16.48 10.44-1.88c.49 4 4.08 5.79 8.16 5.79 3.59 0 5.38-1.39 5.38-3.43 0-7.1-22.51-1.14-22.51-18.27 0-7.42 6.85-13.38 16.4-13.38 8.97 0 15.25 4.08 17.13 11.83l-10.28 2.77c-.9-3.02-3.51-4.81-6.69-4.81-2.85 0-4.81 1.22-4.81 3.1 0 6.69 22.76 1.14 22.76 17.62 0 8.65-6.77 14.6-17.95 14.6-9.14 0-16.8-4.41-18.03-13.95zm41.68-8.56c0-12.56 8.81-22.6 22.35-22.6 10.44 0 18.84 5.55 21.62 16.32l-11.01 2.77c-1.31-4.89-5.22-7.75-10.28-7.75-6.53 0-10.6 4.89-10.6 11.26s4.16 11.17 10.6 11.17c5.06 0 8.89-2.77 10.2-7.5l11.09 2.69c-2.69 10.69-11.18 16.15-21.62 16.15-13.54 0-22.35-10.12-22.35-22.51zm51.72-39.73h11.91v22.11h.82c1.96-2.61 5.38-4.98 10.52-4.98 9.05 0 15.25 6.77 15.25 15.17v28.88h-11.91v-25.04c0-4.32-2.85-7.5-7.18-7.5s-7.5 3.26-7.5 7.5v25.04H165.1zm45.43 39.64c0-12.97 8.73-22.51 19.74-22.51 5.47 0 9.38 2.12 11.91 5.06h.9v-4h11.91v31.24c0 1.14.82 1.79 1.96 1.79h1.71v9.95h-10.77a4.6 4.6 0 0 1-4.73-4.57h-.9c-2.28 3.26-5.71 5.63-11.91 5.63-11.01 0-19.82-9.71-19.82-22.6zm32.71.09c0-7.1-4.73-11.09-10.36-11.09s-10.28 4.32-10.28 11.09 4.65 11.09 10.36 11.09c6.2 0 10.28-5.06 10.28-11.09zm27.41-11.02h-7.1v-10.52h7.1v-4.89c0-9.38 5.63-13.3 14.28-13.3h8.24v10.69h-7.91c-2.04 0-2.77.82-2.77 2.69v4.81h10.93v10.52h-10.93v32.47h-11.83V186.4zm35.15 19.17V186.4h-7.1v-10.52h7.91v-11.75h11.09v11.75h11.42v10.52H317.7v19.09c0 1.88.73 2.69 2.69 2.69h8.24v10.69h-9.38c-8.65 0-13.46-3.92-13.46-13.3zm29.45-8.15c0-13.46 9.95-22.6 21.94-22.6 13.21 0 21.45 9.79 21.45 22.51v3.02h-31.16c.08 5.63 4.24 9.05 9.87 9.05 3.92 0 7.67-1.55 9.3-5.14l10.6 2.45c-3.1 9.63-11.42 13.21-19.74 13.21-13.13 0-22.27-9.54-22.27-22.51zm31.41-4.98c-.57-4.32-4.41-7.75-9.46-7.75-5.55 0-9.05 3.92-9.63 7.75zm19.73-16.56h11.91v3.92h.82c1.96-2.77 5.46-4.98 10.44-4.98 9.05 0 15.09 6.77 15.09 15.17v28.88h-11.91v-25.04c0-4.32-2.94-7.5-7.1-7.5s-7.34 3.26-7.34 7.59v24.96h-11.91v-42.99zM3.55 240.53h5.3v52.21h25.12v4.89H3.55zm38.33 36.14c0-13.54 8.73-22.35 20.23-22.35 12.56 0 19.9 8.73 19.9 21.45v2.28H47.26c.16 10.28 6.12 15.91 15.34 15.91 6.44 0 12.07-3.75 13.87-10.12l5.06 1.22c-2.2 7.5-8.89 13.62-19.01 13.62-12.73 0-20.64-8.89-20.64-22.03zm34.84-3.1c-.41-9.79-7.02-14.6-14.6-14.6s-14.19 5.63-14.76 14.6h29.37zM98.9 259.7h-8.16v-4.32h13.38v42.25H98.9zm-1.55-16.64c0-2.28 1.71-4.16 4.08-4.16s4.16 1.88 4.16 4.16-1.71 4.24-4.16 4.24-4.08-1.88-4.08-4.24zm22.68 12.32h4.89v7.26h.41c.82-1.3 5.14-8.32 15.09-8.32 12.24 0 20.72 9.05 20.72 22.19s-8.16 22.19-20.48 22.19a16.75 16.75 0 0 1-15.01-8.4h-.41v26.1h-5.22v-61.02zm35.73 21.12c0-10.77-6.77-17.46-15.5-17.46-9.38 0-15.25 7.75-15.25 17.46 0 10.36 6.36 17.46 15.34 17.46s15.42-6.93 15.42-17.46zm14.11 14.6 26.59-30.83v-.41H170.6v-4.49h30.67v6.36l-26.59 31v.41h27v4.49h-31.81zm49.51-31.4h-8.16v-4.32h13.38v42.25h-5.22zm-1.55-16.64c0-2.28 1.71-4.16 4.08-4.16s4.16 1.88 4.16 4.16-1.71 4.24-4.16 4.24-4.08-1.88-4.08-4.24zm29.2 68.6h18.92c5.63 0 7.18-1.96 7.18-7.67v-13.7h-.41c-.98 1.79-5.3 8.4-15.01 8.4-12.32 0-20.48-9.05-20.48-22.19s8.48-22.19 20.72-22.19c9.95 0 14.28 7.02 15.09 8.32h.41v-7.26h4.89v49.51c0 8.16-5.22 11.5-12.64 11.5h-18.68v-4.73zm26.35-35.16c0-9.71-5.87-17.46-15.25-17.46-8.73 0-15.5 6.69-15.5 17.46s6.61 17.46 15.42 17.46 15.34-7.1 15.34-17.46zm41.76 5.14 19.99-16.8c2.77-2.28 4.65-4.81 4.65-7.91 0-2.94-2.45-5.87-6.61-5.87-3.92 0-6.77 3.18-6.77 7.5h-11.5c0-9.46 6.36-19.09 18.44-19.09s18.68 7.99 18.68 16.89c0 7.42-3.26 12.07-8.81 16.48l-15.83 12.64v.9h24.96v11.26h-37.2v-15.99zm46.98-1.79v-21.54c0-11.5 9.3-18.84 19.25-18.84s19.33 7.34 19.33 18.84v21.54c0 11.5-9.3 18.84-19.33 18.84s-19.25-7.34-19.25-18.84zm26.6-.33v-20.88c0-4.24-2.94-7.59-7.34-7.59s-7.26 3.34-7.26 7.59v20.88c0 4.32 2.86 7.59 7.26 7.59s7.34-3.26 7.34-7.59zm44.61-43.07h4.81l-24.55 69.99h-4.89l24.64-69.99zm14.85 42.99c0-3.92 1.06-7.5 3.51-11.83l15.58-27.08h13.46l-13.05 20.96.73.57a7.5 7.5 0 0 1 3.1-.65c8.89 0 16.48 7.91 16.48 18.03 0 10.77-9.38 19.25-20.15 19.25s-19.66-8.32-19.66-19.25zm27.57 0c0-4.41-3.34-7.83-7.75-7.83s-7.59 3.43-7.59 7.83 3.26 7.83 7.59 7.83 7.75-3.43 7.75-7.83zm46.9-42.99h4.81l-24.55 69.99h-4.89l24.64-69.99zm13.05 45.19 19.99-16.8c2.77-2.28 4.65-4.81 4.65-7.91 0-2.94-2.45-5.87-6.61-5.87-3.92 0-6.77 3.18-6.77 7.5h-11.5c0-9.46 6.36-19.09 18.44-19.09s18.68 7.99 18.68 16.89c0 7.42-3.26 12.07-8.81 16.48l-15.83 12.64v.9h24.96v11.26h-37.2v-15.99zm46.99-1.71h11.42c.16 4.89 3.83 7.34 7.83 7.34 4.41 0 7.75-3.18 7.75-7.67s-3.1-7.99-8.08-7.99c-4.65 0-6.69 3.59-6.69 3.59h-11.09l1.88-34.67h32.79v11.01h-22.11l-.73 11.99h.98c1.39-1.14 3.83-2.37 7.5-2.37 10.52 0 17.78 8.4 17.78 18.52 0 11.18-8.73 19.01-19.74 19.01-10.03 0-19.01-5.96-19.5-18.76zM95.46 118.82c0-13.13 8.16-22.19 20.39-22.19 9.71 0 14.11 6.77 15.09 8.4h.41V78.76h5.22v61.18h-4.98v-7.26h-.41c-.82 1.31-5.14 8.32-15.01 8.32-12.32 0-20.72-9.05-20.72-22.19zm36.13 0c0-10.36-6.36-17.46-15.42-17.46s-15.34 6.93-15.34 17.46 6.69 17.46 15.42 17.46c9.38 0 15.34-7.83 15.34-17.46zm15.34.16c0-13.54 8.73-22.35 20.23-22.35 12.56 0 19.9 8.73 19.9 21.45v2.28h-34.75c.16 10.28 6.12 15.91 15.34 15.91 6.44 0 12.07-3.75 13.87-10.12l5.06 1.22c-2.2 7.5-8.89 13.62-19.01 13.62-12.73 0-20.64-8.89-20.64-22.02zm34.83-3.1c-.41-9.79-7.02-14.6-14.6-14.6s-14.19 5.63-14.76 14.6h29.37zm16.47-18.19h5.14v7.34h.41c1.71-3.92 5.55-8.4 11.99-8.4h3.1v5.22h-3.51c-7.67 0-11.91 6.2-11.91 15.17v22.92h-5.22zm45.76-14.85h13.21l7.02 44.87h.9l6.77-44.87H290l6.77 44.87h.9l7.02-44.87h13.22l-11.18 57.1h-18.35l-6.93-44.87h-.98l-6.93 44.87h-18.6l-10.93-57.1zm89.16 24.64h-7.1V96.96h18.93v42.99h-11.83zm-.98-23.17c0-3.83 3.02-6.85 7.1-6.85s7.01 3.02 7.01 6.85-3.02 6.93-7.01 6.93-7.1-3.02-7.1-6.93zm21.45 42.74 10.44-1.88c.49 4 4.08 5.79 8.16 5.79 3.59 0 5.38-1.39 5.38-3.43 0-7.1-22.51-1.14-22.51-18.27 0-7.42 6.85-13.38 16.4-13.38 8.97 0 15.25 4.08 17.13 11.83l-10.28 2.77c-.9-3.02-3.51-4.81-6.69-4.81-2.86 0-4.81 1.22-4.81 3.1 0 6.69 22.76 1.14 22.76 17.62 0 8.65-6.77 14.6-17.95 14.6-9.14 0-16.8-4.41-18.03-13.95zm41.68 0 10.44-1.88c.49 4 4.08 5.79 8.16 5.79 3.59 0 5.38-1.39 5.38-3.43 0-7.1-22.51-1.14-22.51-18.27 0-7.42 6.85-13.38 16.4-13.38 8.97 0 15.25 4.08 17.13 11.83l-10.28 2.77c-.9-3.02-3.51-4.81-6.69-4.81-2.86 0-4.81 1.22-4.81 3.1 0 6.69 22.76 1.14 22.76 17.62 0 8.65-6.77 14.6-17.95 14.6-9.14 0-16.8-4.41-18.03-13.95zm41.68-8.56c0-13.46 9.95-22.6 21.94-22.6 13.22 0 21.45 9.79 21.45 22.51v3.02h-31.16c.08 5.63 4.24 9.05 9.87 9.05 3.92 0 7.67-1.55 9.3-5.14l10.6 2.45c-3.1 9.63-11.42 13.21-19.74 13.21-13.13 0-22.27-9.54-22.27-22.51zm31.41-4.98c-.57-4.32-4.41-7.75-9.46-7.75-5.55 0-9.05 3.92-9.62 7.75h19.09zm19.74-16.56h11.91v3.92h.82c1.96-2.77 5.46-4.98 10.44-4.98 9.05 0 15.09 6.77 15.09 15.17v28.88h-11.91V114.9c0-4.32-2.94-7.5-7.1-7.5s-7.34 3.26-7.34 7.59v24.96h-11.91V96.96z" fill="currentcolor"/>
    </symbol>
    <symbol fill="none" viewBox="0 0 24 24" id="pin">
        <path fill="currentcolor" d="M12 22a33.24 33.24 0 0 1-6.01-6.36C4.66 13.68 4 11.87 4 10.2c0-2.5.8-4.5 2.41-5.97A8 8 0 0 1 12 2a8 8 0 0 1 5.59 2.22C19.19 5.71 20 7.7 20 10.2c0 1.67-.66 3.48-1.99 5.44A33.24 33.24 0 0 1 12 22Z"/>
    </symbol>
    <symbol fill="none" viewBox="0 0 24 24" id="send">
        <path fill="currentcolor" d="M3 20V4l19 8-19 8Zm2-3 11.85-5L5 7v3.5l6 1.5-6 1.5V17Z"/>
    </symbol>
</svg>